<svg width="1440" height="900" viewBox="0 0 1440 900" fill="none" xmlns="http://www.w3.org/2000/svg">
<g clip-path="url(#clip0_842_934)">
<rect width="1440" height="900" fill="#121D33"/>
<g filter="url(#filter0_f_842_934)">
<ellipse cx="898.624" cy="880.788" rx="592.5" ry="327" transform="rotate(-6.48121 898.624 880.788)" fill="#7349F2"/>
</g>
<g filter="url(#filter1_f_842_934)">
<path d="M1315 679.499C1368.98 603.021 1372.06 544.649 1399 454.999C1450.99 281.945 1412.7 168.299 1474.5 -1.50095C1600.6 -347.966 1818.65 742.64 1508.5 941.999C1313.53 1067.32 743.008 1097.37 914.999 941.999C983.686 879.95 1049.43 886.502 1127 835.999C1207.06 783.879 1259.91 757.545 1315 679.499Z" fill="url(#paint0_linear_842_934)"/>
</g>
<g filter="url(#filter2_f_842_934)">
<path d="M231.88 731.946C90.0734 741.276 -2.4787 793.62 -92.5012 915.407C-274.87 1162.12 790.639 1240.5 642.249 969.451C548.686 798.552 413.012 720.029 231.88 731.946Z" fill="#0C6CF2"/>
</g>
<g filter="url(#filter3_f_842_934)">
<path d="M237.841 800.357C119.932 808.114 42.9768 851.637 -31.8748 952.9C-183.51 1158.04 702.435 1223.21 579.052 997.837C501.257 855.738 388.448 790.448 237.841 800.357Z" fill="#21C1D7"/>
</g>
<rect y="189" width="1440" height="711" fill="#121D33" style="mix-blend-mode:lighten"/>
</g>
<defs>
<filter id="filter0_f_842_934" x="8.73438" y="249" width="1779.78" height="1263.58" filterUnits="userSpaceOnUse" color-interpolation-filters="sRGB">
<feFlood flood-opacity="0" result="BackgroundImageFix"/>
<feBlend mode="normal" in="SourceGraphic" in2="BackgroundImageFix" result="shape"/>
<feGaussianBlur stdDeviation="150" result="effect1_foregroundBlur_842_934"/>
</filter>
<filter id="filter1_f_842_934" x="633.105" y="-318.977" width="1284.19" height="1616.53" filterUnits="userSpaceOnUse" color-interpolation-filters="sRGB">
<feFlood flood-opacity="0" result="BackgroundImageFix"/>
<feBlend mode="normal" in="SourceGraphic" in2="BackgroundImageFix" result="shape"/>
<feGaussianBlur stdDeviation="125" result="effect1_foregroundBlur_842_934"/>
</filter>
<filter id="filter2_f_842_934" x="-413.572" y="430.769" width="1370.05" height="1008.95" filterUnits="userSpaceOnUse" color-interpolation-filters="sRGB">
<feFlood flood-opacity="0" result="BackgroundImageFix"/>
<feBlend mode="normal" in="SourceGraphic" in2="BackgroundImageFix" result="shape"/>
<feGaussianBlur stdDeviation="150" result="effect1_foregroundBlur_842_934"/>
</filter>
<filter id="filter3_f_842_934" x="-249.396" y="599.378" width="1040.28" height="740.033" filterUnits="userSpaceOnUse" color-interpolation-filters="sRGB">
<feFlood flood-opacity="0" result="BackgroundImageFix"/>
<feBlend mode="normal" in="SourceGraphic" in2="BackgroundImageFix" result="shape"/>
<feGaussianBlur stdDeviation="100" result="effect1_foregroundBlur_842_934"/>
</filter>
<linearGradient id="paint0_linear_842_934" x1="1421.5" y1="315.999" x2="1224.5" y2="886.999" gradientUnits="userSpaceOnUse">
<stop stop-color="#FF0095"/>
<stop offset="1" stop-color="#FFCDFF"/>
</linearGradient>
<clipPath id="clip0_842_934">
<rect width="1440" height="900" fill="white"/>
</clipPath>
</defs>
</svg>
